# xmcd
#
# Track frame offsets:
#	150
#	19030
#	35362
#	49657
#	65947
#	80620
#	96707
#	107715
#	126897
#	142067
#	160530
#	178095
#
# Disc length: 2584
#
# Revision: 1
# Processed by: cddbd v1.5.1PL0 Copyright (c) Steve Scherf et al.
# Submitted via: CDex 1.50beta9
# Normalized: r0:TDELIM( - )
#
DISCID=aa0a160c
DTITLE=Ultimate Country Classics - Disc 3 - Volume 2
DYEAR=2002
DGENRE=Country
TTITLE0=K.T. Olsin - 80's Ladies
TTITLE1=Alabama - Feels So Right
TTITLE2=Earl Thomas Conley - Holding Her and Loving You
TTITLE3=Vince Gill - Oklahoma Borderline
TTITLE4=Lorrie Morgan - Out of Your Shoes
TTITLE5=Restless Heart - Big Dreams In a Small Town
TTITLE6=Eddy Raven - I Got Mexico
TTITLE7=Jo-el Sonnier - Tear Stained Letter
TTITLE8=Eddie Rabbit - The Wanderer
TTITLE9=Juice Newton - You Make Me Want To Mke You Mine
TTITLE10=Michael Johnson - The Moon Is Still Over Her Shoulder
TTITLE11=Steve Wariner - All Roads Lead To You
EXTD=YEAR: 2002
EXTT0=
EXTT1=
EXTT2=
EXTT3=
EXTT4=
EXTT5=
EXTT6=
EXTT7=
EXTT8=
EXTT9=
EXTT10=
EXTT11=
PLAYORDER=
